<svg version="1.1" id="Layer_1" xmlns="http://www.w3.org/2000/svg" xmlns:xlink="http://www.w3.org/1999/xlink" x="0px" y="0px"
	 width="100%" viewBox="0 0 500 500" enable-background="new 0 0 500 500" xml:space="preserve">
<path fill="green" stroke="none" 
	d="
M121.160553,47.165539 
	C148.211929,25.909807 178.484085,13.581357 212.240677,8.828187 
	C286.348053,-1.606666 361.215820,40.168964 396.448853,98.946022 
	C408.005585,118.225449 414.590942,139.131348 417.002502,161.423508 
	C418.058899,171.188324 418.980682,180.978653 420.457886,190.682159 
	C421.147614,195.212616 422.708435,199.683548 424.393921,203.977554 
	C435.735291,232.870758 447.220612,261.707458 458.649933,290.566193 
	C463.778900,303.516754 457.225464,313.313538 443.257782,313.491272 
	C435.970886,313.584015 428.681793,313.507629 421.000183,313.507629 
	C421.000183,330.854828 421.039062,347.823059 420.989380,364.790985 
	C420.938934,382.025757 415.766327,397.535889 404.763733,410.879547 
	C390.151123,428.601379 371.308746,437.749756 348.274323,437.983490 
	C338.778046,438.079865 329.279999,437.999451 319.313354,437.999451 
	C319.313354,456.661407 319.313354,475.231598 319.313354,494.153137 
	C253.307098,494.153137 187.769485,494.153137 121.786880,494.153137 
	C121.786880,492.269135 121.786880,490.472321 121.786880,488.675537 
	C121.786880,440.015289 121.749062,391.354950 121.865929,342.694977 
	C121.874359,339.184326 120.799873,336.971405 118.113708,334.724548 
	C78.816162,301.853790 56.408958,259.897644 51.940952,208.841995 
	C46.681190,148.739014 66.953354,98.107475 110.233665,56.445763 
	C113.584908,53.219852 117.318398,50.391052 121.160553,47.165539 
M212.500000,197.998001 
	C194.669342,197.998001 176.837418,197.897827 159.009537,198.119949 
	C156.681946,198.148972 153.797897,199.242020 152.150360,200.846970 
	C139.618301,213.055130 127.324951,225.508469 114.974533,237.902664 
	C113.981094,238.899597 113.116776,240.025192 111.864464,241.469177 
	C139.332809,250.387863 166.352783,251.150131 193.427582,243.018005 
	C220.430450,234.907471 242.337936,218.916992 262.337616,197.998001 
	C245.155441,197.998001 229.327728,197.998001 212.500000,197.998001 
M146.105209,159.500031 
	C146.105209,134.080612 146.105209,108.661201 146.105209,82.168480 
	C120.646767,105.781525 103.032463,132.813812 97.468643,166.361710 
	C93.802353,188.468185 94.711403,210.591293 103.020424,232.567947 
	C110.998627,224.545578 118.395584,217.108017 125.792145,209.670074 
	C132.485672,202.939087 141.821396,197.287903 145.137360,189.176071 
	C148.531525,180.872986 146.027496,170.158813 146.105209,159.500031 
M252.500076,138.155716 
	C241.169800,138.155716 229.836212,138.014053 218.512131,138.278839 
	C216.325882,138.329956 213.653091,139.436539 212.092422,140.963501 
	C198.039749,154.712631 184.180374,168.659439 170.284683,182.568634 
	C169.456024,183.398102 168.802536,184.402542 167.654724,185.843948 
	C202.306244,185.843948 236.104797,185.876038 269.902618,185.734146 
	C271.350983,185.728073 273.352997,184.464371 274.146515,183.193130 
	C279.325806,174.895569 284.606964,166.623962 289.120911,157.961487 
	C292.291748,151.876556 294.300812,145.186234 297.069061,138.155716 
	C281.787964,138.155716 267.644012,138.155716 252.500076,138.155716 
M206.021927,127.844772 
	C206.021927,101.258461 206.021927,74.672150 206.021927,47.664955 
	C189.578003,52.120953 175.303345,59.655766 161.912689,69.102776 
	C159.330368,70.924583 158.308502,72.835678 158.320999,76.058975 
	C158.444351,107.876076 158.381485,139.693878 158.384216,171.511490 
	C158.384338,172.934952 158.507629,174.358429 158.640366,177.225037 
	C175.014893,160.448425 190.508575,144.574295 206.021927,127.844772 
M280.675262,72.174942 
	C263.031769,89.860558 245.388260,107.546173 227.266708,125.710983 
	C252.055664,125.710983 275.796906,125.710983 299.841095,125.710983 
	C302.361633,103.019562 302.373688,80.871674 293.877502,58.481892 
	C289.250885,63.287422 285.213165,67.481285 280.675262,72.174942 
M263.004578,72.504601 
	C270.401733,65.252464 277.798920,58.000324 285.713226,50.241180 
	C263.007233,41.817230 240.897415,41.513695 218.577866,44.554985 
	C218.577866,68.883369 218.577866,92.525696 218.577866,116.736679 
	C233.531616,101.849182 248.018097,87.426888 263.004578,72.504601 
M365.167938,229.552094 
	C366.393402,230.050888 367.597961,230.610580 368.847656,231.038696 
	C377.888000,234.135696 387.558807,230.728516 392.749023,222.644730 
	C397.884460,214.646225 396.889832,204.241547 390.262054,197.435104 
	C384.079742,191.086060 376.594696,189.367981 368.371063,192.270691 
	C361.162415,194.815155 356.292725,200.060669 355.108093,207.728439 
	C353.727478,216.664764 356.701630,224.067047 365.167938,229.552094 
z"/>
</svg>