<?xml version="1.0" encoding="iso-8859-1"?>
<!-- Uploaded to: SVG Repo, www.svgrepo.com, Generator: SVG Repo Mixer Tools -->
<!DOCTYPE svg PUBLIC "-//W3C//DTD SVG 1.1//EN" "http://www.w3.org/Graphics/SVG/1.1/DTD/svg11.dtd">
<svg height="800px" width="800px" version="1.1" id="Capa_1" xmlns="http://www.w3.org/2000/svg" xmlns:xlink="http://www.w3.org/1999/xlink" 
	 viewBox="0 0 248.311 248.311" xml:space="preserve">
	<style>
        path {
            fill: white;
        }
        @media (prefers-color-scheme: dark) {
            path { fill: black; }
        }
	</style>
<g>
	<rect fill="green" x="0" width="100%" height="100%" rx="20%" />
	<path d="M218.008,42.807c-16.709,0-30.303,13.594-30.303,30.302c0,5.825,1.656,11.269,4.516,15.893l-29.12,33.418
		c-3.986-1.932-8.455-3.017-13.173-3.017c-6.165,0-11.902,1.855-16.692,5.029l-15.887-13.543c1.431-3.518,2.227-7.359,2.227-11.384
		c0-16.708-13.594-30.302-30.303-30.302S58.971,82.796,58.971,99.504c0,6.314,1.944,12.182,5.261,17.042l-23.367,30.256
		c-3.291-1.228-6.849-1.902-10.562-1.902C13.594,144.899,0,158.493,0,175.202c0,16.708,13.594,30.302,30.303,30.302
		s30.303-13.594,30.303-30.302c0-6.465-2.042-12.459-5.505-17.385l23.221-30.068c3.399,1.323,7.091,2.057,10.952,2.057
		c6.147,0,11.87-1.845,16.652-5.003l15.91,13.563c-1.42,3.505-2.209,7.33-2.209,11.338c0,16.709,13.594,30.303,30.303,30.303
		c16.708,0,30.302-13.594,30.302-30.303c0-5.446-1.452-10.557-3.978-14.978l29.537-33.896c3.74,1.655,7.872,2.582,12.218,2.582
		c16.709,0,30.303-13.594,30.303-30.303C248.311,56.4,234.717,42.807,218.008,42.807z M218.008,85.411
		c-6.784,0-12.303-5.519-12.303-12.303c0-6.783,5.519-12.302,12.303-12.302s12.303,5.519,12.303,12.302
		C230.311,79.893,224.792,85.411,218.008,85.411z M149.929,162.007c-6.784,0-12.303-5.519-12.303-12.303
		c0-6.783,5.519-12.302,12.303-12.302c6.783,0,12.302,5.519,12.302,12.302C162.23,156.488,156.712,162.007,149.929,162.007z
		 M89.273,111.807c-6.784,0-12.303-5.519-12.303-12.303c0-6.783,5.519-12.302,12.303-12.302s12.303,5.519,12.303,12.302
		C101.576,106.288,96.058,111.807,89.273,111.807z M42.605,175.202c0,6.783-5.519,12.302-12.303,12.302S18,181.985,18,175.202
		c0-6.784,5.519-12.303,12.303-12.303S42.605,168.418,42.605,175.202z"/>
</g>
</svg>